<svg width="49" height="48" viewBox="0 0 49 48" fill="none" xmlns="http://www.w3.org/2000/svg">
<g filter="url(#filter0_d_1255_2234)">
<path d="M3.5 17.9333C3.5 12.7062 3.5 10.0926 4.51727 8.09609C5.41209 6.33991 6.83991 4.91209 8.59609 4.01727C10.5926 3 13.2062 3 18.4333 3H30.5667C35.7938 3 38.4074 3 40.4039 4.01727C42.1601 4.91209 43.5879 6.33991 44.4827 8.09609C45.5 10.0926 45.5 12.7062 45.5 17.9333V30.0667C45.5 35.2938 45.5 37.9074 44.4827 39.9039C43.5879 41.6601 42.1601 43.0879 40.4039 43.9827C38.4074 45 35.7938 45 30.5667 45H18.4333C13.2062 45 10.5926 45 8.59609 43.9827C6.83991 43.0879 5.41209 41.6601 4.51727 39.9039C3.5 37.9074 3.5 35.2938 3.5 30.0667V17.9333Z" fill="white"/>
<path d="M24.5031 18.6763L19.3118 9.5147C19.4841 9.33921 19.6825 9.2241 19.8808 9.14673C18.3499 9.65057 17.6474 11.3697 17.6474 11.3697L8.16367 28.102C8.03023 28.6266 7.99316 29.1003 8.00984 29.5173H18.361L24.5031 18.6763Z" fill="#34A853"/>
<path d="M24.5029 18.6763L30.645 29.5173H40.9962C41.0129 29.1003 40.9758 28.6266 40.8424 28.102L31.3586 11.3697C31.3586 11.3697 30.6543 9.65057 29.1253 9.14673C29.3217 9.2241 29.5219 9.33921 29.6943 9.5147L24.5029 18.6763Z" fill="#FBBC05"/>
<path d="M24.5029 18.6766L29.6942 9.51507C29.5218 9.33958 29.3216 9.22447 29.1252 9.1471C28.8991 9.0735 28.6563 9.02444 28.3931 9.01123H28.1188H20.8869H20.6126C20.3513 9.02255 20.1066 9.07162 19.8805 9.1471C19.6841 9.22447 19.4839 9.33958 19.3115 9.51507L24.5029 18.6766Z" fill="#188038"/>
<path d="M18.3627 29.5176L13.2307 38.5754C13.2307 38.5754 13.0602 38.4923 12.8285 38.3206C13.5569 38.8811 14.2649 39 14.2649 39H34.4204C35.5324 39 35.7641 38.5754 35.7641 38.5754C35.7678 38.5735 35.7697 38.5716 35.7734 38.5697L30.6451 29.5176H18.3627Z" fill="#4285F4"/>
<path d="M18.3631 29.5176H8.01196C8.06386 30.7479 8.59763 31.4669 8.59763 31.4669L8.98684 32.1425C9.01465 32.1821 9.03132 32.2047 9.03132 32.2047L9.87832 33.6917L11.7799 37.0016C11.8355 37.1356 11.9004 37.2582 11.9689 37.3752C11.9949 37.4148 12.019 37.4582 12.0468 37.496C12.0542 37.5073 12.0616 37.5186 12.069 37.53C12.3044 37.8621 12.5676 38.1187 12.8308 38.3206C13.0624 38.4942 13.2329 38.5754 13.2329 38.5754L18.3631 29.5176Z" fill="#1967D2"/>
<path d="M30.645 29.5176H40.9962C40.9443 30.7479 40.4105 31.4669 40.4105 31.4669L40.0213 32.1425C39.9935 32.1821 39.9768 32.2047 39.9768 32.2047L39.1298 33.6917L37.2282 37.0016C37.1726 37.1356 37.1078 37.2582 37.0392 37.3752C37.0132 37.4148 36.9891 37.4582 36.9613 37.496C36.9539 37.5073 36.9465 37.5186 36.9391 37.53C36.7037 37.8621 36.4405 38.1187 36.1774 38.3206C35.9457 38.4942 35.7752 38.5754 35.7752 38.5754L30.645 29.5176Z" fill="#EA4335"/>
</g>
<defs>
<filter id="filter0_d_1255_2234" x="-1.5" y="-1" width="52" height="52" filterUnits="userSpaceOnUse" color-interpolation-filters="sRGB">
<feFlood flood-opacity="0" result="BackgroundImageFix"/>
<feColorMatrix in="SourceAlpha" type="matrix" values="0 0 0 0 0 0 0 0 0 0 0 0 0 0 0 0 0 0 127 0" result="hardAlpha"/>
<feOffset dy="1"/>
<feGaussianBlur stdDeviation="1"/>
<feColorMatrix type="matrix" values="0 0 0 0 0.0627451 0 0 0 0 0.0941176 0 0 0 0 0.156863 0 0 0 0.05 0"/>
<feBlend mode="normal" in2="BackgroundImageFix" result="effect1_dropShadow_1255_2234"/>
<feBlend mode="normal" in="SourceGraphic" in2="effect1_dropShadow_1255_2234" result="shape"/>
</filter>
</defs>
</svg>
