<svg width="43" height="42" viewBox="0 0 43 42" fill="none" xmlns="http://www.w3.org/2000/svg">
<path d="M41.9971 19.8247L23.3113 1.75185L21.5 0L7.43403 13.6045L1.00289 19.8247C0.33237 20.474 0.33237 21.526 1.00289 22.1753L13.8537 34.6045L21.5 42L35.566 28.3955L35.7838 28.1848L41.9971 22.1753C42.6676 21.526 42.6676 20.474 41.9971 19.8247ZM21.5 27.2091L15.0803 21L21.5 14.7909L27.9197 21L21.5 27.2091Z" fill="#2684FF"/>
<path fill-rule="evenodd" clip-rule="evenodd" d="M21.5001 14.7908C17.297 10.7251 17.2765 4.13991 21.4543 0.0498047L7.40552 13.6322L15.0518 21.0276L21.5001 14.7908Z" fill="url(#paint0_linear_1255_2279)"/>
<path fill-rule="evenodd" clip-rule="evenodd" d="M27.9369 20.9834L21.5 27.2091C23.5287 29.1701 24.6685 31.8305 24.6685 34.6046C24.6685 37.3787 23.5287 40.039 21.5 42L35.5832 28.3789L27.9369 20.9834Z" fill="url(#paint1_linear_1255_2279)"/>
<defs>
<linearGradient id="paint0_linear_1255_2279" x1="20.3538" y1="8.50968" x2="9.64493" y2="13.1853" gradientUnits="userSpaceOnUse">
<stop offset="0.18" stop-color="#0052CC"/>
<stop offset="1" stop-color="#2684FF"/>
</linearGradient>
<linearGradient id="paint1_linear_1255_2279" x1="22.7266" y1="33.4182" x2="33.4162" y2="28.7757" gradientUnits="userSpaceOnUse">
<stop offset="0.18" stop-color="#0052CC"/>
<stop offset="1" stop-color="#2684FF"/>
</linearGradient>
</defs>
</svg>
