<svg width="39" height="40" viewBox="0 0 39 40" fill="none" xmlns="http://www.w3.org/2000/svg">
<path d="M35.2503 18.4997C37.3212 18.4997 39 16.8209 39 14.75C39 12.6792 37.3211 11.0004 35.2502 11.0004C33.1791 11.0004 31.5 12.6793 31.5 14.7504V18.4997H35.2503ZM24.75 18.4997C26.8211 18.4997 28.5 16.8208 28.5 14.7497V4.25037C28.5 2.1793 26.8211 0.500366 24.75 0.500366C22.6789 0.500366 21 2.1793 21 4.25037V14.7497C21 16.8208 22.6789 18.4997 24.75 18.4997Z" fill="#2EB67D"/>
<path d="M3.74968 21.5003C1.67879 21.5003 1.90735e-06 23.1791 1.90735e-06 25.25C1.90735e-06 27.3208 1.67895 28.9996 3.74984 28.9996C5.82091 28.9996 7.5 27.3207 7.5 25.2496V21.5003H3.74968ZM14.25 21.5003C12.1789 21.5003 10.5 23.1792 10.5 25.2503V35.7496C10.5 37.8207 12.1789 39.4996 14.25 39.4996C16.3211 39.4996 18 37.8207 18 35.7496V25.2503C18 23.1792 16.3211 21.5003 14.25 21.5003Z" fill="#E01E5A"/>
<path d="M21.0003 35.7503C21.0003 37.8212 22.6791 39.5 24.75 39.5C26.8208 39.5 28.4996 37.8211 28.4996 35.7502C28.4996 33.6791 26.8207 32 24.7496 32L21.0003 32L21.0003 35.7503ZM21.0003 25.25C21.0003 27.3211 22.6792 29 24.7503 29L35.2496 29C37.3207 29 38.9996 27.3211 38.9996 25.25C38.9996 23.1789 37.3207 21.5 35.2496 21.5L24.7503 21.5C22.6792 21.5 21.0003 23.1789 21.0003 25.25Z" fill="#ECB22E"/>
<path d="M17.9996 4.24968C17.9996 2.17879 16.3208 0.500001 14.2499 0.500001C12.179 0.500001 10.5002 2.17895 10.5002 4.24984C10.5002 6.32091 12.1792 8 14.2502 8L17.9996 8L17.9996 4.24968ZM17.9996 14.75C17.9996 12.6789 16.3207 11 14.2496 11L3.75025 11C1.67918 11 0.000244395 12.6789 0.000244305 14.75C0.000244214 16.8211 1.67918 18.5 3.75024 18.5L14.2496 18.5C16.3207 18.5 17.9996 16.8211 17.9996 14.75Z" fill="#36C5F0"/>
</svg>
