<svg width="66" height="66" viewBox="0 0 66 66" fill="none" xmlns="http://www.w3.org/2000/svg">
<rect x="5" y="5" width="56" height="56" rx="28" fill="#F4EBFF"/>
<rect x="5" y="5" width="56" height="56" rx="28" stroke="#F9F5FF" stroke-width="10"/>
<path d="M37.0834 27.7502L41.1667 23.6668M43.5001 21.3335L41.1667 23.6668L43.5001 21.3335ZM32.2884 32.5452C32.8908 33.1395 33.3697 33.8472 33.6975 34.6274C34.0252 35.4076 34.1954 36.245 34.1983 37.0912C34.2011 37.9375 34.0365 38.776 33.714 39.5583C33.3914 40.3407 32.9173 41.0516 32.3189 41.65C31.7205 42.2484 31.0097 42.7225 30.2273 43.0451C29.4449 43.3676 28.6064 43.5322 27.7601 43.5294C26.9139 43.5265 26.0765 43.3563 25.2963 43.0285C24.5161 42.7008 23.8085 42.2219 23.2141 41.6195C22.0452 40.4093 21.3985 38.7884 21.4131 37.106C21.4277 35.4236 22.1025 33.8142 23.2922 32.6245C24.4819 31.4348 26.0913 30.76 27.7738 30.7453C29.4562 30.7307 31.077 31.3775 32.2872 32.5463L32.2884 32.5452ZM32.2884 32.5452L37.0834 27.7502L32.2884 32.5452ZM37.0834 27.7502L40.5834 31.2502L44.6667 27.1668L41.1667 23.6668L37.0834 27.7502Z" stroke="#7F56D9" stroke-width="2.33333" stroke-linecap="round" stroke-linejoin="round"/>
</svg>
